<svg width="20" height="20" viewBox="0 0 20 20" fill="none" xmlns="http://www.w3.org/2000/svg">
<path fill-rule="evenodd" clip-rule="evenodd" d="M11.5924 11.4138C10.1605 12.8458 7.83887 12.8458 6.40695 11.4138C4.97503 9.98191 4.97503 7.66031 6.40695 6.22838C7.83887 4.79646 10.1605 4.79646 11.5924 6.22838C13.0243 7.66031 13.0243 9.98191 11.5924 11.4138ZM12.0328 12.7968C10.0726 14.2962 7.25697 14.1495 5.46414 12.3566C3.51152 10.404 3.51152 7.2382 5.46414 5.28557C7.41676 3.33295 10.5826 3.33295 12.5352 5.28557C14.328 7.07832 14.4747 9.89374 12.9756 11.854L16.5423 15.4207L15.5995 16.3635L12.0328 12.7968Z" fill="#999999"/>
</svg>
